<svg height="800" viewBox="0 0 58 58" width="800" xmlns="http://www.w3.org/2000/svg"><path d="m32 0c-1.021 0-2.025.076-3.015.21-1.032-.138-2.013-.21-2.985-.21-7.362 0-14.001 3.571-18.66 9.264-.047.042-.081.092-.119.142-1.485 1.839-2.761 3.898-3.793 6.126-.026.049-.049.097-.068.15-.711 1.557-1.304 3.193-1.76 4.897-.045.096-.065.201-.078.31-.661 2.576-1.022 5.296-1.022 8.111 0 4.404.872 8.579 2.423 12.321.014.04.027.078.046.116.93 2.218 2.1 4.28 3.473 6.145.035.048.064.099.107.14 1.39 1.865 2.983 3.526 4.74 4.942.05.055.11.096.172.139 4.127 3.272 9.138 5.197 14.539 5.197.972 0 1.953-.072 2.985-.21.99.134 1.994.21 3.015.21 14.061 0 25.5-13.009 25.5-29s-11.439-29-25.5-29zm17.217 20.202c.523-.182 1.091.099 1.27.622.222.646.419 1.313.587 1.98.135.536-.19 1.079-.726 1.214-.082.021-.164.03-.245.03-.447 0-.854-.302-.969-.756-.155-.614-.336-1.227-.54-1.82-.178-.522.1-1.091.623-1.27zm-43.789 21.798h3.788c.157.354.318.705.487 1.051.073.149.149.296.225.444.205.402.417.797.638 1.186.082.145.161.292.246.436.177.299.362.592.548.884h-3.586c-.883-1.247-1.665-2.586-2.346-4.001zm-.46-25h3.827c-.175.437-.341.879-.498 1.327-.043.124-.087.247-.129.371-.144.43-.278.864-.405 1.302h-3.906c.318-1.031.69-2.031 1.111-3zm3.557-6h3.503c-.122.175-.245.349-.364.527-.295.443-.58.894-.852 1.356-.084.143-.164.291-.246.436-.221.389-.434.785-.638 1.186-.075.148-.152.294-.225.444-.008.017-.017.034-.025.051h-3.749c.757-1.427 1.629-2.762 2.596-4zm16.257-.772c-.146.074-.3.109-.453.109-.364 0-.715-.199-.892-.546-.251-.492-.056-1.094.437-1.345.623-.318 1.267-.602 1.916-.845.516-.193 1.094.068 1.287.586.194.517-.069 1.093-.586 1.287-.578.217-1.153.47-1.709.754zm.476 38.907c-.176.347-.528.547-.893.547-.152 0-.307-.035-.452-.108-.615-.312-1.224-.665-1.809-1.048-.462-.302-.591-.922-.289-1.384.304-.461.922-.591 1.385-.289.523.343 1.068.659 1.619.938.492.25.689.852.439 1.344zm-11.614-15.195c.534-.136 1.079.193 1.212.729.153.613.333 1.226.536 1.82.178.523-.101 1.091-.624 1.269-.107.037-.216.054-.323.054-.416 0-.805-.262-.946-.678-.221-.648-.417-1.315-.583-1.982-.134-.536.192-1.078.728-1.212zm-1.477-4.919v-.021c0-.682.027-1.368.08-2.037.044-.55.523-.958 1.076-.918.551.044.961.526.918 1.076-.049.618-.074 1.25-.074 1.879 0 .552-.448 1.011-1 1.011s-1-.437-1-.99zm3.211-7.47c-.142.417-.53.679-.947.679-.106 0-.215-.018-.321-.053-.523-.178-.803-.745-.626-1.269.221-.65.472-1.299.747-1.928.222-.507.81-.736 1.317-.516.506.221.737.811.516 1.317-.253.578-.483 1.174-.686 1.77zm1.137 19.747c.457-.309 1.079-.189 1.388.27.353.523.732 1.033 1.127 1.515.35.427.288 1.057-.139 1.408-.186.152-.411.227-.634.227-.289 0-.576-.125-.774-.366-.434-.53-.851-1.09-1.239-1.665-.307-.458-.187-1.08.271-1.389zm2.489-26.348c-.198.242-.485.367-.775.367-.223 0-.446-.074-.632-.226-.428-.35-.491-.979-.142-1.407.441-.541.91-1.06 1.391-1.545.391-.391 1.023-.393 1.415-.004.392.39.394 1.022.004 1.415-.436.438-.86.909-1.261 1.4zm-16.504 14.05c0-.674.036-1.338.078-2h3.987c-.001.016-.001.032-.002.048-.037.646-.063 1.295-.063 1.952 0 .335.012.667.022 1h-3.983c-.011-.334-.039-.663-.039-1zm4.136 3c.038.421.087.839.141 1.255.004.03.006.061.01.092.074.556.164 1.107.265 1.653h-3.944c-.195-.982-.349-1.981-.448-3zm.62-10c-.026.118-.048.238-.072.356-.027.132-.055.263-.081.395-.122.627-.23 1.26-.315 1.902-.004.03-.006.061-.01.092-.012.085-.019.17-.03.255h-3.969c.132-1.018.299-2.022.528-3zm.239 15c.031.122.06.246.092.367.012.044.022.09.034.134.165.609.35 1.208.548 1.8.042.125.086.247.129.371.037.11.074.22.113.328h-3.853c-.379-.971-.705-1.973-.983-3zm21.535 13.288c.066-.549.567-.933 1.112-.875.612.073 1.237.11 1.858.11.552 0 1.043.448 1.043 1s-.405 1-.957 1h-.086c-.7 0-1.406-.042-2.096-.124-.548-.065-.94-.563-.874-1.111zm4.906-41.7c-.039 0-.078-.002-.117-.007-.602-.07-1.214-.105-1.819-.105-.552 0-1.021-.448-1.021-1s.426-1 .979-1h.042c.682 0 1.371.04 2.049.119.548.063.942.56.878 1.108-.059.509-.491.885-.991.885zm-12.496-5.974c-.331.172-.658.352-.981.539-.181.105-.363.206-.541.316-.277.17-.548.35-.818.531h-1.925c1.462-.684 2.988-1.223 4.579-1.558-.107.053-.208.117-.314.172zm-7.708 3.386h2.762c-.248.217-.496.435-.737.662-.201.19-.396.387-.592.584-.198.199-.394.401-.586.606-.185.197-.37.393-.55.596-.16.18-.313.367-.468.552h-3.302c1.074-1.117 2.233-2.124 3.473-3zm-4.408 42h3.432c.113.148.225.296.341.441.302.38.613.75.932 1.111.179.203.365.399.55.596.193.206.389.408.588.607.08.08.156.166.237.245h-3.008c-1.099-.899-2.126-1.903-3.072-3zm12.429 7.558c-2.293-.483-4.46-1.369-6.47-2.558h2.419c.128.099.26.192.389.288.207.154.414.309.625.456.393.274.794.537 1.201.787.178.109.36.211.541.316.323.187.65.367.981.539.107.055.208.119.314.172zm18.414-6.025c-.623.32-1.267.605-1.914.849-.116.044-.235.065-.353.065-.404 0-.785-.247-.936-.648-.195-.517.066-1.094.583-1.288.576-.217 1.15-.472 1.706-.757.491-.254 1.094-.059 1.346.433.254.491.059 1.094-.432 1.346zm1.983-38.7c-.192.294-.512.454-.839.454-.187 0-.376-.052-.545-.162-.523-.341-1.068-.655-1.621-.934-.493-.249-.691-.85-.442-1.343.249-.491.85-.691 1.343-.442.618.312 1.227.663 1.812 1.043.463.302.593.922.292 1.384zm4.424 33.448c-.441.542-.908 1.063-1.389 1.548-.195.197-.453.296-.71.296-.254 0-.509-.097-.704-.29-.392-.389-.395-1.022-.006-1.414.435-.438.857-.91 1.257-1.402.349-.428.979-.494 1.407-.145.428.348.493.978.145 1.407zm.329-27.444c-.321 0-.636-.154-.829-.439-.354-.522-.734-1.031-1.13-1.512-.351-.426-.29-1.057.136-1.408.426-.352 1.057-.29 1.408.136.436.529.854 1.088 1.243 1.663.31.457.19 1.079-.268 1.389-.172.116-.367.171-.56.171zm3.627 20.212c-.22.653-.47 1.303-.743 1.93-.164.376-.532.601-.917.601-.133 0-.269-.027-.399-.083-.506-.221-.738-.81-.518-1.316.25-.575.479-1.17.681-1.769.176-.522.743-.805 1.267-.629.524.175.806.742.629 1.266zm1.227-6.056c-.041.524-.479.923-.996.923-.026 0-.052-.001-.078-.003-.551-.042-.962-.523-.92-1.074.047-.606.071-1.225.071-1.838 0-.552.448-1.032 1-1.032s1 .415 1 .967v.064c-.001.665-.026 1.335-.077 1.993z"/></svg>